<?xml version="1.0" standalone="no"?>
<!DOCTYPE svg PUBLIC "-//W3C//DTD SVG 20010904//EN"
 "http://www.w3.org/TR/2001/REC-SVG-20010904/DTD/svg10.dtd">
<svg version="1.0" xmlns="http://www.w3.org/2000/svg"
 width="400.000000pt" height="400.000000pt" viewBox="0 0 400.000000 400.000000"
 preserveAspectRatio="xMidYMid meet">
<metadata>
Created by potrace 1.14, written by Peter Selinger 2001-2017
</metadata>
<g transform="translate(0.000000,400.000000) scale(0.100000,-0.100000)"
fill="#000000" stroke="none">
<path d="M0 3935 l0 -65 43 0 c23 0 55 -7 71 -15 15 -8 54 -15 86 -15 32 0 70
-7 86 -14 15 -8 31 -13 36 -10 9 6 149 -34 162 -47 6 -5 43 -9 83 -9 65 0 73
-2 73 -19 0 -10 7 -21 15 -25 8 -3 15 -12 15 -19 0 -10 11 -14 34 -13 30 1 33
3 24 20 -6 11 -6 21 -1 25 5 3 10 23 11 44 2 29 0 37 -10 31 -7 -4 -1 6 15 23
30 32 34 48 15 60 -17 10 -17 70 -1 70 15 0 30 -39 37 -102 6 -46 5 -48 -10
-30 -10 13 -14 15 -11 5 2 -8 0 -23 -5 -32 -5 -12 -5 -18 2 -18 5 0 10 5 10
10 0 21 22 9 31 -18 13 -37 44 -39 57 -4 27 72 25 69 30 43 2 -13 -1 -28 -7
-34 -6 -6 -11 -16 -11 -21 0 -6 7 -3 15 8 9 11 22 17 34 13 11 -2 28 1 38 8
10 6 25 12 33 13 8 0 32 5 53 10 33 9 37 8 37 -9 0 -10 -7 -19 -15 -19 -8 0
-15 -5 -15 -11 0 -6 -9 -8 -20 -4 -24 8 -26 -2 -4 -26 15 -17 14 -19 -10 -25
-14 -3 -26 -12 -26 -20 0 -11 -21 -14 -100 -14 -55 0 -100 -3 -100 -8 0 -4 18
-18 40 -32 22 -14 40 -28 40 -32 0 -5 18 -8 40 -8 30 0 40 -4 40 -16 0 -20 45
-64 66 -64 7 0 14 -4 14 -8 0 -4 13 -16 30 -25 44 -26 59 -45 55 -67 -2 -11
-1 -19 3 -19 4 1 16 1 27 0 16 -1 17 -3 6 -10 -8 -5 -21 -7 -30 -4 -13 4 -14
3 -2 -5 12 -9 10 -12 -11 -17 -15 -4 -29 -13 -32 -21 -3 -8 -10 -14 -16 -14
-6 0 -9 4 -5 9 3 5 1 12 -4 16 -6 3 -8 -4 -6 -15 2 -12 -1 -20 -6 -18 -6 2
-10 7 -9 12 2 10 -20 26 -35 26 -5 0 -3 -5 5 -10 8 -5 11 -10 6 -10 -6 0 -1
-6 10 -14 10 -8 16 -18 11 -22 -4 -4 -19 3 -35 17 -15 13 -21 17 -14 9 16 -19
15 -35 -2 -21 -10 9 -15 8 -19 -3 -4 -10 -1 -13 7 -10 7 3 13 -2 13 -10 0 -18
-60 -11 -96 11 -13 8 -20 10 -17 4 9 -14 19 -14 -105 5 -144 21 -478 23 -536
2 -23 -9 -45 -13 -48 -10 -3 3 -5 45 -5 94 l0 88 -29 0 c-15 0 -56 3 -90 6
-42 5 -61 3 -61 -4 0 -7 31 -12 83 -14 l82 -3 3 -87 3 -88 -88 -2 c-48 -1 -70
-3 -48 -5 22 -3 45 -9 52 -15 9 -7 13 -7 13 0 0 6 7 9 15 6 9 -4 12 -11 7 -18
-4 -6 -9 -81 -11 -166 -2 -85 -6 -159 -9 -164 -3 -5 0 -6 7 -1 9 5 12 -1 10
-21 -2 -16 0 -35 5 -42 4 -7 5 -25 2 -38 -5 -17 -3 -23 4 -19 5 3 10 -1 10
-10 0 -9 -4 -13 -10 -10 -5 3 -10 1 -10 -4 0 -6 5 -11 10 -11 6 0 8 -11 4 -26
-5 -17 -3 -25 3 -21 7 4 9 -10 7 -40 -2 -32 0 -43 6 -33 8 12 10 9 11 -10 1
-14 1 -36 0 -50 -2 -20 0 -22 8 -10 9 12 11 11 11 -7 0 -12 5 -25 11 -29 8 -4
7 -9 -2 -15 -10 -6 -9 -12 6 -29 14 -16 15 -19 3 -15 -18 7 -41 52 -33 66 4 5
-14 9 -39 9 -39 0 -46 3 -46 20 0 17 -7 20 -40 20 l-40 0 0 -329 0 -329 79 -7
c44 -4 98 -4 120 0 31 5 41 3 41 -7 0 -10 3 -9 11 2 8 12 9 11 5 -5 -3 -11 -8
-41 -12 -67 l-6 -48 -119 0 -119 0 0 -95 0 -95 43 4 c23 2 50 -1 61 -6 14 -8
17 -7 11 3 -6 8 -4 10 6 3 8 -4 33 -7 56 -7 37 2 43 -1 43 -19 0 -20 -4 -20
-110 -16 l-110 5 0 -248 c0 -225 2 -249 17 -259 17 -11 17 -11 0 -6 -15 5 -17
0 -15 -35 1 -23 9 -45 17 -50 14 -9 13 -10 -1 -5 -16 5 -18 -3 -18 -65 0 -67
1 -69 22 -64 22 4 206 38 361 65 37 7 70 10 72 8 3 -3 -66 -17 -152 -32 -219
-39 -303 -57 -303 -69 0 -5 10 -7 23 -4 66 16 200 38 215 35 9 -2 -40 -15
-110 -28 -71 -13 -128 -28 -128 -33 0 -9 23 -7 125 13 103 21 159 29 163 26 2
-2 -23 -10 -55 -16 -134 -27 -158 -34 -135 -38 21 -3 178 23 287 48 76 18 140
29 143 25 4 -4 -40 -16 -128 -34 -30 -6 -82 -18 -115 -25 -57 -13 -58 -14 -20
-14 22 -1 79 7 128 17 48 10 90 15 93 10 3 -5 -6 -9 -19 -9 -39 0 -87 -12 -87
-21 0 -5 25 -9 55 -9 30 0 55 4 55 9 0 5 11 11 25 13 28 6 35 -8 7 -15 -11 -3
-8 -5 9 -6 22 -1 27 -8 38 -52 12 -46 12 -51 -5 -64 -16 -11 -12 -12 31 -8 28
3 55 9 60 13 6 4 33 10 60 14 31 3 42 2 30 -3 -28 -12 -111 -31 -138 -32 -12
0 -44 -11 -72 -25 l-50 -24 40 6 c22 3 103 21 180 39 77 19 154 37 170 39 47
8 188 45 194 52 3 3 1 8 -4 12 -18 13 -66 112 -60 123 4 5 0 18 -9 28 -19 20
-49 98 -70 178 -12 45 -12 53 2 67 15 15 14 16 -5 16 -18 0 -23 9 -32 68 -5
37 -12 99 -15 137 l-6 70 23 -60 c27 -71 147 -314 159 -321 12 -8 10 16 -12
166 -11 74 -20 140 -20 147 0 8 20 3 56 -14 30 -14 74 -27 97 -30 l42 -4 -40
32 c-79 64 -157 150 -151 165 3 9 1 12 -4 9 -6 -3 -10 -1 -10 4 0 6 1 11 3 12
63 12 84 9 125 -23 23 -18 42 -40 42 -50 0 -12 8 -18 23 -19 12 -1 30 -2 41
-3 10 0 23 -12 27 -25 9 -22 8 -23 -31 -19 -22 2 -40 0 -40 -5 0 -5 10 -27 22
-49 16 -28 28 -38 43 -36 11 1 26 -2 34 -6 9 -6 18 -3 26 7 7 10 18 17 25 17
9 0 7 -6 -5 -20 -10 -11 -15 -20 -11 -20 4 0 1 -6 -6 -14 -7 -8 -16 -12 -20
-9 -5 2 -8 1 -8 -2 0 -3 19 -15 43 -25 46 -21 44 -22 -53 -22 l-45 1 50 -9
c87 -16 254 42 247 85 -2 11 -9 23 -15 27 -8 5 -8 8 -2 8 6 0 16 -5 23 -12 19
-19 41 10 54 73 14 68 5 125 -22 132 -23 6 -27 27 -6 27 8 0 18 10 22 23 4 12
11 25 16 28 5 3 -7 14 -27 23 -19 9 -33 21 -30 26 5 7 -35 12 -184 23 -29 3
-47 10 -54 22 -9 17 -5 18 95 12 58 -4 114 -9 124 -13 17 -5 17 -4 -1 7 -12 9
-64 15 -134 17 l-114 4 -31 35 c-17 19 -48 60 -68 90 -40 58 -40 55 -22 170
l5 31 82 7 c45 3 113 3 151 -2 l69 -8 29 -105 c15 -58 28 -108 28 -112 0 -5
-19 -9 -42 -9 -44 -1 -41 -3 23 -14 34 -5 38 -10 65 -73 30 -73 74 -151 140
-252 44 -68 94 -122 94 -102 0 7 -31 108 -70 224 -38 117 -68 213 -67 214 1 1
34 -45 72 -104 131 -199 351 -426 296 -306 -6 15 -10 29 -7 31 2 3 24 -7 48
-21 35 -20 127 -50 134 -43 1 1 -4 27 -12 57 -19 73 -18 80 11 80 24 0 25 2
19 36 -5 29 -4 36 7 32 11 -3 62 -168 69 -223 3 -20 50 129 50 157 0 26 2 28
44 28 l44 0 7 -72 c11 -117 21 -148 51 -148 13 0 33 5 44 12 26 17 37 2 16
-21 -10 -11 -15 -25 -10 -32 4 -8 3 -10 -4 -5 -7 4 -17 4 -23 1 -14 -9 17 -31
58 -40 28 -5 32 -4 27 9 -5 12 -2 15 10 10 9 -3 16 -2 16 4 0 6 -6 13 -12 15
-9 4 -9 6 -1 6 6 1 18 -13 27 -29 9 -19 11 -30 4 -30 -6 0 -9 -3 -6 -6 3 -3
22 1 41 10 19 8 39 11 42 8 4 -4 1 3 -6 15 -8 13 -18 23 -22 23 -5 0 -7 7 -4
15 4 8 2 17 -3 20 -15 9 -12 25 4 25 7 0 26 -16 41 -36 26 -34 28 -35 46 -18
11 10 18 27 17 38 -2 12 2 21 7 21 18 1 35 16 35 31 0 9 -11 14 -35 14 -32 0
-35 2 -35 30 0 34 12 37 58 14 23 -11 32 -23 32 -39 0 -42 18 -37 35 10 10 24
21 42 25 40 16 -10 38 7 50 36 15 36 24 31 55 -31 29 -58 32 -126 10 -209 -11
-44 -12 -63 -2 -98 9 -37 9 -48 -5 -71 -9 -15 -29 -34 -45 -43 -15 -9 -27 -21
-26 -27 2 -6 -11 -51 -28 -99 -29 -82 -97 -193 -119 -193 -5 0 -12 -11 -16
-25 -3 -14 -7 -25 -8 -25 -1 0 -65 -22 -141 -49 -154 -54 -231 -86 -240 -102
-4 -5 -15 -7 -26 -4 -11 4 -19 2 -19 -5 0 -6 -15 -17 -32 -25 -18 -7 -64 -32
-103 -54 -53 -32 -77 -40 -97 -35 -30 6 -89 -10 -128 -35 -34 -22 -89 -40 -95
-31 -5 9 8 20 47 40 26 12 39 40 20 40 -23 0 -221 -78 -232 -91 -3 -4 -59 -32
-125 -64 -66 -32 -156 -76 -199 -97 -44 -21 -87 -38 -96 -38 -9 0 -25 -9 -35
-20 -10 -11 -23 -20 -28 -20 -6 0 -18 -6 -26 -14 -23 -20 -71 -31 -71 -16 0 6
9 14 20 17 11 3 20 9 20 13 0 5 35 25 78 46 42 20 90 43 105 50 16 8 37 14 48
14 11 0 22 6 25 14 3 8 18 18 34 21 15 3 42 17 61 31 18 13 40 24 50 24 9 0
22 7 29 15 7 9 20 14 29 13 9 -2 30 7 45 20 16 12 40 25 54 29 14 3 34 15 45
26 l20 20 -50 -6 c-27 -3 -77 -19 -109 -35 -32 -16 -96 -48 -141 -71 -46 -22
-86 -41 -89 -41 -3 0 -47 -20 -98 -45 -102 -49 -146 -63 -146 -46 0 7 28 24
62 40 35 15 83 37 108 48 25 11 55 24 68 27 12 4 22 12 22 17 0 5 9 9 20 9 11
0 20 4 20 8 0 5 19 15 43 22 76 23 95 31 117 55 22 23 22 23 2 30 -14 4 -61
-13 -142 -50 -67 -30 -124 -55 -127 -55 -3 0 -29 -11 -57 -24 -28 -14 -62 -27
-76 -31 -22 -6 -23 -5 -10 8 27 26 180 97 209 97 10 0 21 7 25 15 3 8 18 21
33 27 27 11 27 12 5 16 -23 4 -149 -36 -204 -64 -16 -8 -37 -14 -46 -12 -11 3
6 16 46 36 34 18 62 37 62 43 0 12 -51 8 -83 -6 -13 -5 -16 -4 -11 9 5 13 -1
16 -27 17 l-34 0 45 24 c25 13 55 29 68 34 12 6 22 13 22 15 0 14 -85 -5 -160
-36 -101 -42 -146 -38 -51 4 35 16 74 31 87 34 37 9 147 71 138 77 -5 2 -31
-2 -59 -10 -93 -26 -100 -24 -35 11 l65 35 -39 1 c-38 0 -110 -24 -333 -114
-127 -50 -173 -63 -173 -47 0 6 7 11 15 11 8 0 36 10 62 21 70 32 77 35 203
80 198 71 186 66 164 73 -11 3 -42 0 -69 -8 -27 -8 -52 -13 -57 -10 -4 3 -8 1
-8 -3 0 -5 -21 -15 -48 -22 -26 -8 -60 -20 -77 -27 -39 -18 -115 -44 -126 -44
-25 0 -3 20 39 34 113 40 224 75 257 82 37 7 48 24 15 24 -32 0 -163 -37 -320
-91 -80 -27 -155 -49 -166 -49 -12 0 -27 -7 -35 -16 -7 -8 -21 -13 -31 -11
-10 3 -18 2 -18 -2 0 -4 -20 -14 -45 -23 -32 -12 -45 -14 -45 -5 0 18 308 124
528 182 56 15 102 31 102 36 0 13 -14 11 -110 -12 -138 -33 -152 -37 -220 -59
-36 -12 -89 -26 -117 -32 -29 -5 -51 -14 -48 -18 3 -4 -8 -10 -23 -13 -38 -8
-152 -49 -184 -67 -89 -50 -139 -72 -280 -120 -124 -43 -158 -58 -158 -72 0
-22 -5 -22 63 1 30 11 58 17 61 14 3 -3 20 4 38 15 42 25 103 45 125 40 14 -3
9 -9 -17 -23 -19 -10 -48 -22 -65 -26 -16 -4 -68 -21 -115 -37 -69 -24 -86
-34 -88 -52 -3 -19 0 -21 15 -16 34 14 216 76 221 76 3 0 -3 -9 -13 -20 -10
-11 -26 -20 -36 -20 -10 0 -20 -4 -23 -9 -3 -5 -23 -12 -43 -16 -21 -4 -49
-13 -63 -20 -14 -7 -33 -16 -42 -19 -11 -3 -18 -15 -18 -31 0 -30 3 -30 44 -7
39 23 114 47 122 39 12 -12 -9 -29 -32 -24 -15 2 -24 -1 -24 -8 0 -7 -24 -21
-53 -32 -47 -18 -52 -23 -55 -53 l-3 -32 28 20 c32 22 93 38 93 24 0 -5 -10
-14 -23 -21 -81 -43 -112 -41 562 -41 597 0 635 1 670 18 20 11 61 31 91 46
30 15 84 42 120 61 36 19 71 35 78 35 24 0 12 -28 -15 -36 -16 -4 -30 -8 -33
-10 -3 -1 -15 -5 -27 -9 -13 -4 -23 -11 -23 -16 0 -5 -5 -9 -11 -9 -7 0 -33
-13 -60 -30 -26 -16 -63 -33 -81 -39 -29 -8 -24 -9 38 -10 47 -1 76 4 90 14
10 8 29 15 41 15 12 0 23 3 25 8 4 10 49 35 146 84 81 40 108 44 81 12 -14
-17 -105 -64 -125 -64 -6 0 -17 -6 -24 -14 -6 -8 -19 -12 -27 -9 -11 4 -14 2
-9 -5 5 -8 -5 -18 -26 -27 l-33 -14 50 0 c59 -1 114 17 152 47 15 12 33 22 39
22 14 0 104 49 122 67 7 7 27 13 43 13 16 0 29 4 29 9 0 5 22 21 50 35 49 26
80 33 80 19 -1 -12 -150 -92 -176 -96 -13 -2 -34 -12 -47 -22 -36 -30 -65 -45
-87 -45 -11 0 -20 -6 -20 -13 0 -8 -10 -19 -22 -25 -19 -9 -13 -11 38 -11 47
-1 67 4 87 19 14 11 27 20 30 20 2 0 44 23 92 51 81 46 115 55 115 29 0 -5 -4
-10 -9 -10 -5 0 -31 -15 -57 -33 -27 -19 -67 -42 -89 -53 l-40 -19 54 -3 c30
-2 59 2 64 7 14 14 47 14 47 1 0 -7 182 -10 528 -10 l527 0 58 40 c31 22 64
40 72 40 8 0 12 6 9 14 -6 16 79 76 108 76 10 0 18 6 18 13 0 19 33 47 54 47
10 0 14 5 11 11 -4 6 2 13 14 16 12 3 21 10 21 17 0 6 10 18 23 26 22 14 22
15 -13 20 -35 6 -47 0 -156 -75 -58 -39 -119 -88 -135 -106 -9 -11 -20 -19
-25 -19 -5 0 -26 -11 -47 -25 -34 -24 -38 -24 -44 -9 -5 13 2 24 22 38 15 12
51 38 79 58 107 78 165 123 170 136 10 23 -49 13 -96 -17 -25 -16 -54 -31 -64
-33 -11 -2 -18 -10 -17 -16 2 -7 -8 -12 -21 -12 -14 0 -31 -8 -38 -18 -12 -17
-49 -42 -62 -42 -3 0 -6 6 -6 14 0 7 25 30 55 50 31 20 67 46 81 59 l25 22
-27 7 c-19 5 -36 1 -64 -17 -73 -46 -106 -43 -79 7 10 19 9 20 -25 16 -34 -4
-35 -3 -29 22 5 21 4 23 -8 14 -17 -14 -89 -26 -89 -15 0 4 13 17 30 29 28 21
42 62 21 62 -5 0 -48 -22 -96 -49 -49 -27 -95 -47 -103 -44 -11 5 -9 10 9 24
13 10 29 19 34 19 6 0 26 13 45 30 19 16 40 30 45 30 6 0 23 12 40 25 22 18
27 27 18 36 -12 12 -94 -24 -175 -78 -63 -41 -163 -93 -182 -93 -21 0 -20 19
2 27 9 4 35 18 57 32 71 45 257 142 300 156 17 5 18 8 4 15 -9 6 -30 4 -55 -5
-21 -8 -48 -15 -59 -15 -11 -1 -33 -10 -50 -21 -16 -10 -44 -25 -60 -33 -17
-8 -64 -34 -105 -58 -113 -65 -179 -93 -191 -81 -7 7 0 14 23 23 18 8 44 21
58 30 69 47 262 140 313 151 31 8 57 17 57 21 0 5 9 8 19 8 10 0 21 7 25 15 7
18 -34 21 -65 4 -11 -6 -25 -8 -32 -6 -7 2 8 13 33 25 44 21 80 42 90 52 9 10
150 47 150 40 0 -4 -20 -13 -45 -20 -57 -16 -58 -32 -2 -30 63 3 64 2 72 -27
15 -62 42 -69 51 -14 5 34 11 40 44 50 53 16 55 15 57 -25 1 -20 4 -39 7 -42
3 -3 23 2 43 11 21 9 67 22 103 28 36 7 67 15 70 19 10 13 90 40 90 29 0 -5
-14 -15 -31 -21 -40 -14 -30 -21 34 -25 77 -4 78 -5 71 -25 -7 -25 20 -24 85
4 39 16 55 18 63 10 9 -9 7 -12 -7 -12 -22 0 -107 -39 -117 -54 -11 -17 2 -27
22 -16 10 5 28 10 39 10 12 0 21 4 21 8 0 4 29 17 65 27 36 11 65 22 65 25 0
3 12 6 26 6 32 2 37 5 -86 -51 -58 -26 -111 -53 -118 -60 -28 -26 26 -23 84 6
33 15 85 39 117 53 l57 26 0 125 c0 112 -2 125 -17 125 -17 1 -17 1 0 14 23
18 23 76 0 76 -17 1 -17 1 0 11 9 5 17 17 17 25 0 12 -5 12 -36 -1 -20 -8 -41
-12 -47 -8 -7 4 8 12 33 18 42 10 45 13 48 48 2 25 -1 37 -9 37 -10 0 -10 3
-1 12 20 20 14 29 -15 23 l-28 -5 28 11 c39 16 33 31 -10 25 l-38 -5 38 10
c20 6 37 16 37 21 0 9 -22 7 -72 -8 -10 -3 -18 -1 -18 5 0 5 -21 13 -46 17
-33 5 -42 9 -33 16 9 6 0 7 -26 3 -88 -15 -97 -14 -40 2 40 12 53 19 38 21
-12 2 -38 -1 -57 -7 -22 -5 -36 -6 -36 0 0 5 10 9 23 10 12 0 31 5 42 10 14 7
4 8 -35 4 -37 -3 -48 -1 -35 5 11 5 31 9 45 9 16 1 21 4 14 11 -8 8 -19 7 -39
0 -15 -6 -30 -8 -33 -6 -3 3 4 8 14 11 10 4 33 12 49 20 43 19 98 28 89 13 -5
-8 4 -9 33 -5 21 4 53 3 71 -2 23 -7 34 -6 43 5 9 11 8 14 -2 14 -11 0 -11 2
1 10 12 8 13 11 1 19 -11 7 -11 10 0 15 8 3 2 4 -13 2 -15 -1 -25 1 -22 5 3 5
14 9 25 9 15 0 19 7 19 38 l0 37 -81 3 c-45 1 -91 8 -103 15 -18 10 -5 12 82
15 l102 3 0 93 0 93 -46 7 c-26 3 -89 6 -141 6 l-94 0 2 38 c1 20 -2 45 -6 55
-6 13 -4 16 9 11 9 -3 16 -9 16 -13 0 -3 59 -7 130 -9 l130 -3 0 1110 0 1111
-561 0 c-334 0 -558 -4 -555 -9 8 -12 -3 -41 -15 -41 -5 0 -8 3 -8 8 4 21 -2
42 -12 42 -6 0 -9 -10 -7 -23 3 -17 0 -23 -14 -24 -15 -1 -16 2 -8 17 7 13 6
19 -6 24 -24 9 -27 7 -20 -10 8 -22 -4 -40 -16 -23 -7 11 -11 11 -15 2 -9 -23
-33 -14 -33 13 0 15 -4 23 -10 19 -6 -4 -9 -14 -8 -22 2 -9 -4 -18 -12 -20
-13 -4 -13 -3 0 6 10 7 11 11 3 11 -7 0 -13 8 -13 17 0 15 -2 14 -14 -2 -8
-11 -12 -24 -9 -30 4 -6 2 -6 -3 -2 -12 12 -12 30 1 39 5 4 -8 8 -30 8 -34 0
-41 -3 -42 -20 -1 -11 2 -18 8 -15 5 4 9 -1 9 -9 0 -9 -8 -16 -18 -16 -15 0
-18 6 -14 30 2 17 0 30 -6 30 -5 0 -12 -13 -15 -30 -4 -16 -11 -30 -16 -30 -6
0 -8 7 -5 15 4 8 1 15 -5 15 -6 0 -8 7 -5 15 4 8 2 15 -4 15 -13 0 -23 -26
-16 -44 4 -11 0 -13 -16 -9 -14 4 -18 9 -11 16 6 6 5 14 -4 23 -18 19 -35 18
-35 -2 0 -9 5 -12 11 -8 7 4 10 1 7 -6 -8 -24 -26 -22 -31 2 -4 22 -4 22 -6 1
0 -12 -9 -23 -19 -26 -23 -5 142 -19 193 -17 22 2 84 2 138 1 l97 -1 0 -26 c0
-24 3 -26 33 -20 l32 6 3 -76 c2 -47 0 -74 -6 -70 -6 3 -12 -1 -15 -9 -4 -9
-1 -12 9 -8 22 8 18 -39 -6 -60 -16 -13 -39 -17 -110 -17 -49 0 -92 5 -95 10
-3 6 -11 10 -16 10 -6 0 -7 -4 -4 -10 3 -5 2 -10 -4 -10 -5 0 -13 5 -16 10 -3
6 -2 10 4 10 6 0 8 8 4 18 -6 15 -4 15 16 -3 16 -13 41 -20 87 -23 63 -4 64
-4 64 22 l0 26 -89 0 c-113 0 -121 3 -122 49 0 20 -3 29 -6 21 -4 -8 -13 -20
-21 -26 -15 -11 -13 -43 3 -87 6 -13 3 -16 -9 -11 -9 3 -16 13 -16 21 0 8 -5
11 -10 8 -6 -4 -8 -10 -5 -15 8 -13 -28 -18 -106 -13 -102 6 -116 17 -112 85
1 29 7 54 13 56 6 2 6 10 1 20 -5 10 -11 37 -12 62 -4 44 -3 45 31 51 l35 6
-32 2 c-30 1 -33 4 -33 31 l0 30 -100 0 c-88 0 -100 -2 -101 -17 -2 -17 -5
-109 -8 -229 l-1 -52 -79 -7 c-54 -5 -86 -3 -101 5 -12 6 -19 14 -16 17 3 4
-2 12 -12 19 -35 24 -261 -30 -255 -62 1 -7 -16 -8 -49 -4 -77 10 -80 18 -72
188 l7 142 -120 0 -119 0 -33 -34 c-26 -27 -31 -38 -25 -60 3 -15 17 -32 30
-38 l23 -11 -19 -36 c-51 -95 -75 -101 -128 -31 -56 73 -85 104 -114 119 -27
14 -27 15 -8 28 10 7 30 11 42 8 18 -5 29 1 46 24 l23 31 -90 0 c-70 0 -90 -3
-95 -15 -7 -19 -50 -19 -66 0 -10 12 -77 14 -446 15 l-434 0 0 -65z m845 -55
c-9 -41 -17 -33 -9 9 4 17 9 30 11 27 3 -2 2 -19 -2 -36z m31 -36 c-4 -14 -9
-24 -12 -21 -3 2 -2 17 2 31 3 15 9 25 11 22 3 -3 2 -17 -1 -32z m452 -66 c-3
-78 -5 -83 -30 -97 -15 -9 -29 -13 -32 -11 -2 3 4 30 14 60 11 30 19 72 20 93
0 26 4 37 15 37 13 0 15 -14 13 -82z m-501 -10 c-3 -7 -5 -2 -5 12 0 14 2 19
5 13 2 -7 2 -19 0 -25z m998 -48 c-11 -5 -33 -8 -50 -8 l-30 0 30 8 c17 4 39
8 50 8 l20 1 -20 -9z m-88 -16 c-3 -3 -12 -4 -19 -1 -8 3 -5 6 6 6 11 1 17 -2
13 -5z m93 -14 c-43 -10 -171 -18 -164 -10 5 5 116 16 174 17 17 1 14 -2 -10
-7z m960 -5 c0 -10 -11 -15 -35 -15 -24 0 -35 5 -35 15 0 10 11 15 35 15 24 0
35 -5 35 -15z m-1713 -1 c-3 -3 -12 -4 -19 -1 -8 3 -5 6 6 6 11 1 17 -2 13 -5z
m1211 -2 c8 -6 -23 -9 -77 -8 -88 1 -90 0 -68 -16 12 -10 45 -25 72 -34 68
-22 290 -135 400 -202 155 -96 238 -172 317 -291 86 -129 93 -144 107 -251 19
-138 20 -150 11 -150 -14 0 -68 58 -81 89 -7 16 -18 27 -23 24 -5 -4 -7 1 -3
9 3 9 -3 24 -14 34 -10 9 -19 25 -19 34 0 9 -5 21 -12 28 -7 7 -9 12 -4 12 4
0 -2 13 -13 28 -11 16 -21 35 -23 43 -2 8 -5 16 -8 19 -3 3 -17 20 -30 39 -13
19 -26 29 -28 23 -3 -9 -9 -9 -23 -2 -10 6 -19 7 -19 3 0 -4 -6 1 -13 12 -8
10 -19 15 -24 12 -6 -4 -19 5 -29 18 -10 14 -24 25 -31 25 -8 0 10 -36 39 -82
68 -109 159 -318 138 -318 -6 0 -10 6 -10 14 0 8 -6 21 -14 28 -7 8 -21 28
-30 45 -9 18 -22 36 -29 40 -7 4 -35 44 -61 88 -73 120 -243 309 -270 299 -9
-3 -16 -2 -16 4 0 18 -161 265 -168 258 -2 -2 11 -33 29 -67 41 -82 129 -341
128 -377 -1 -22 -3 -18 -14 18 -13 43 -59 160 -90 227 -8 17 -15 34 -15 38 0
4 -15 30 -34 58 -19 29 -46 75 -60 103 -14 28 -33 57 -41 64 -9 7 -24 25 -35
40 l-19 27 97 1 c53 1 103 -2 110 -6z m-218 -17 c0 -8 6 -15 13 -15 23 0 90
-95 86 -122 -3 -26 1 -39 11 -33 5 3 7 0 4 -8 -3 -8 6 -38 19 -68 26 -60 51
-149 43 -156 -3 -3 -34 24 -71 60 -50 50 -74 68 -103 72 -20 4 -46 9 -57 13
-11 3 -29 6 -40 6 -12 1 -21 10 -25 26 l-6 25 -7 -25 c-3 -14 -9 -53 -13 -87
-3 -35 -9 -63 -13 -63 -3 0 -17 9 -31 20 -14 11 -29 20 -33 20 -15 0 -96 40
-102 50 -3 6 -17 7 -30 4 -23 -6 -23 -5 -12 38 5 23 21 60 34 80 25 41 27 48
15 48 -19 0 -81 -174 -83 -232 l-1 -23 -9 25 c-11 31 -61 60 -92 54 -21 -3
-24 -1 -20 21 3 13 24 55 47 92 31 50 61 83 116 125 41 31 86 59 100 61 14 2
78 5 143 6 98 1 117 -1 117 -14z m-332 -18 c-9 -7 -42 -30 -73 -52 -60 -42
-234 -213 -264 -259 -10 -14 -26 -33 -37 -41 -10 -8 -15 -15 -11 -15 8 0 -137
-112 -185 -143 -35 -22 -35 -18 1 40 17 26 27 50 24 53 -3 3 -8 -1 -10 -7 -3
-7 -14 -13 -24 -13 -13 0 -18 -4 -13 -12 5 -8 2 -9 -10 -5 -10 4 -19 1 -23 -9
-3 -8 -11 -13 -17 -11 -6 2 -33 -24 -61 -59 -27 -34 -56 -65 -63 -68 -16 -7
-14 -4 51 91 28 42 45 78 41 84 -4 7 -3 9 4 5 6 -3 52 36 104 89 63 65 129
119 202 168 145 95 301 175 346 176 30 0 33 -1 18 -12z m1002 -244 c275 -183
316 -215 425 -339 89 -100 112 -134 160 -233 31 -64 66 -133 77 -154 11 -21
17 -45 14 -53 -3 -8 -2 -13 3 -10 7 5 24 -29 32 -61 1 -1 7 -24 15 -49 8 -26
12 -49 10 -52 -3 -2 -12 20 -20 48 -9 29 -21 59 -27 66 -6 8 -9 14 -6 14 3 0
-8 14 -24 31 -16 17 -27 35 -24 39 3 4 -1 10 -9 13 -7 3 -37 54 -67 114 -30
59 -57 110 -61 111 -5 2 -8 10 -8 18 0 8 -5 14 -11 14 -6 0 -8 7 -5 16 4 10 2
13 -6 8 -6 -4 -16 -1 -22 7 -6 8 -36 26 -66 41 -30 15 -66 38 -80 51 -14 13
-32 21 -39 19 -10 -3 -12 0 -8 11 3 9 1 19 -5 23 -7 4 -8 3 -4 -4 4 -7 5 -12
3 -12 -3 0 -31 39 -63 86 -62 91 -151 173 -270 249 -35 22 -96 67 -137 100
-41 33 -87 70 -103 82 -57 44 193 -105 326 -194z m-1476 58 c-10 -10 -21 -16
-24 -14 -3 3 4 11 14 19 28 20 33 17 10 -5z m36 -9 c-14 -9 -72 -63 -129 -121
-58 -57 -101 -96 -97 -85 4 12 -6 6 -27 -16 -54 -56 -100 -95 -109 -92 -10 3
-69 -28 -79 -41 -3 -5 -13 -9 -22 -11 -15 -2 -77 -62 -71 -69 2 -1 -6 -3 -16
-3 -14 0 -4 16 43 66 33 36 77 80 96 98 34 32 417 292 430 291 3 0 -5 -7 -19
-17z m-76 -8 c3 -8 2 -12 -4 -9 -6 3 -10 10 -10 16 0 14 7 11 14 -7z m262 -51
c-33 -32 -53 -47 -47 -34 15 27 93 102 100 95 3 -3 -21 -30 -53 -61z m-278 32
c4 -4 -2 -6 -13 -4 -11 2 -26 0 -32 -4 -15 -10 -36 1 -28 13 7 11 62 7 73 -5z
m-383 -141 c66 -9 126 -18 134 -20 10 -3 -3 -17 -35 -40 -27 -19 -60 -46 -73
-60 -12 -14 -29 -23 -37 -20 -8 3 -11 0 -8 -8 3 -7 -2 -16 -11 -20 -9 -3 -13
-11 -9 -17 4 -8 3 -9 -4 -5 -9 5 -9 13 -1 28 14 27 16 26 -161 90 -108 40
-138 54 -117 56 20 2 27 8 23 18 -8 20 142 19 299 -2z m190 6 c-3 -5 -11 -10
-16 -10 -6 0 -7 5 -4 10 3 6 11 10 16 10 6 0 7 -4 4 -10z m2459 -14 c-3 -8
-13 -17 -22 -19 -10 -3 -1 -5 18 -6 28 -2 5 -12 -110 -52 -80 -28 -153 -53
-162 -56 -10 -3 -18 -9 -18 -14 0 -5 7 -6 15 -3 8 4 15 1 15 -5 0 -6 -5 -11
-11 -11 -6 0 -9 -6 -6 -13 3 -8 -1 -14 -8 -14 -8 0 -14 3 -13 6 2 21 -3 41
-12 41 -5 0 -6 -8 -3 -17 4 -10 -26 12 -65 50 -40 37 -78 67 -84 67 -9 0 -9 3
-1 11 13 13 290 47 395 48 64 1 76 -2 72 -13z m-1034 -40 c0 -12 -5 -7 -19 24
-11 24 -11 24 3 6 9 -11 16 -24 16 -30z m1465 15 c3 -5 2 -12 -3 -15 -5 -3 -9
1 -9 9 0 17 3 19 12 6z m-1651 -17 c3 -8 2 -12 -4 -9 -6 3 -10 10 -10 16 0 14
7 11 14 -7z m-1876 -109 c51 -14 106 -25 121 -25 15 0 47 -6 72 -14 24 -7 62
-19 84 -25 68 -19 70 -23 37 -72 -17 -24 -52 -86 -80 -137 l-49 -94 -32 56
c-17 31 -31 58 -31 61 0 3 14 11 31 17 20 7 27 13 19 18 -6 4 -11 10 -11 14 3
20 -2 25 -27 31 -15 3 -54 23 -87 45 -43 28 -62 36 -70 29 -7 -8 -6 -13 2 -16
8 -3 11 -15 7 -31 -4 -18 -3 -23 4 -14 7 10 11 10 22 -3 7 -8 10 -15 7 -15 -3
0 10 -17 28 -37 20 -21 38 -54 41 -73 4 -19 11 -40 15 -46 6 -8 -28 -13 -119
-18 -152 -9 -173 -9 -185 3 -9 9 151 72 190 74 15 1 23 8 23 20 0 17 -1 17
-16 3 -30 -30 -45 -15 -24 24 8 15 5 31 -16 72 -44 87 -76 178 -61 178 6 0 54
-11 105 -25z m3350 -27 c-17 -50 -77 -161 -99 -183 -19 -20 -19 -19 -3 35 9
30 21 63 26 73 18 35 -2 30 -70 -15 -37 -25 -83 -48 -102 -52 -20 -3 -43 -16
-54 -30 -15 -20 -22 -23 -42 -16 -47 18 -23 0 36 -27 59 -28 59 -28 44 -53 -9
-14 -13 -17 -10 -6 4 12 2 17 -6 14 -62 -23 -88 -31 -91 -27 -2 2 -23 38 -45
80 -23 42 -49 82 -57 89 -8 7 -15 16 -15 21 0 24 122 61 260 80 36 5 97 17
135 28 103 28 106 28 93 -11z m-2968 11 c0 -6 -4 -8 -9 -4 -5 3 -12 1 -16 -5
-4 -6 -11 -8 -16 -4 -5 3 -7 9 -5 13 7 11 46 11 46 0z m-430 -168 c19 -48 4
-53 -52 -19 -44 27 -48 33 -32 39 43 17 71 10 84 -20z m3428 -17 c-16 -16 -98
-35 -98 -23 0 4 5 19 11 32 10 22 13 23 55 14 36 -9 42 -13 32 -23z m-3077 3
c-10 -9 -11 -8 -5 6 3 10 9 15 12 12 3 -3 0 -11 -7 -18z m2959 -78 c9 -5 3 -6
-17 -3 -22 4 -33 3 -33 -5 0 -7 5 -9 10 -6 6 4 31 -1 56 -11 54 -21 43 -31
-36 -34 -82 -4 -81 -4 -69 27 20 54 39 61 89 32z m-125 -19 c-3 -5 -12 -10
-18 -10 -7 0 -6 4 3 10 19 12 23 12 15 0z m-3311 -155 c-4 -8 -1 -15 5 -15 6
0 12 8 12 18 1 14 2 14 6 1 2 -9 20 -21 39 -27 32 -9 34 -9 22 5 -12 14 -11
15 8 5 23 -12 37 -38 29 -53 -4 -5 2 -6 11 -2 12 4 15 3 10 -6 -4 -7 1 -19 14
-29 l22 -18 -47 -63 c-25 -35 -44 -65 -41 -69 3 -3 23 -16 43 -28 24 -15 32
-23 21 -24 -13 0 -18 -9 -19 -27 -1 -17 -3 -21 -6 -10 -2 9 -9 17 -14 17 -6 0
-7 5 -4 10 3 6 2 10 -4 10 -6 0 -13 11 -17 25 -3 14 -10 23 -14 20 -13 -8 -40
56 -69 162 -26 94 -26 104 -4 112 1 1 0 -6 -3 -14z m66 -5 c0 -5 -2 -10 -4
-10 -3 0 -8 5 -11 10 -3 6 -1 10 4 10 6 0 11 -4 11 -10z m3488 -25 c-3 -3 -9
2 -12 12 -6 14 -5 15 5 6 7 -7 10 -15 7 -18z m47 -2 c-2 -16 -16 -66 -30 -112
-13 -46 -22 -87 -20 -92 3 -4 0 -11 -6 -15 -8 -5 -9 -3 -4 6 6 9 4 11 -4 6 -7
-5 -10 -13 -8 -20 3 -7 -3 -12 -12 -13 -17 -1 -73 72 -77 102 -2 10 -9 22 -16
26 -11 7 -11 9 0 9 7 0 10 5 6 12 -4 6 -3 8 3 5 5 -3 15 3 23 13 8 10 17 17
22 14 5 -3 11 9 15 27 6 31 6 31 18 9 9 -17 14 -19 18 -9 5 12 7 12 15 0 8
-11 11 -9 17 8 3 12 10 19 15 16 5 -3 11 4 15 15 9 29 16 24 10 -7z m-653 -17
c15 -8 40 -17 57 -21 17 -4 33 -11 37 -16 3 -5 2 -9 -3 -8 -4 1 -15 0 -23 -4
-8 -3 -55 -10 -105 -15 -67 -8 -92 -7 -97 1 -6 9 -8 9 -8 0 0 -7 -10 -13 -22
-13 -15 0 -5 10 38 36 32 19 63 40 69 45 12 12 25 11 57 -5z m188 -47 c32 -17
33 -19 8 -14 -66 12 -76 16 -82 31 -7 18 18 13 74 -17z m-697 -128 c1 -16 5
-27 9 -25 4 3 7 -4 7 -13 -1 -10 9 -65 21 -123 11 -58 23 -136 27 -174 l6 -69
-34 7 c-19 4 -68 9 -109 13 l-76 6 22 141 c13 77 23 161 24 186 1 55 18 85 48
86 12 0 22 -3 22 -8 0 -4 5 -8 11 -8 6 0 8 9 4 23 -5 19 -4 19 5 5 6 -10 12
-31 13 -47z m-2423 -15 c0 -3 -7 -3 -15 0 -8 4 -15 13 -15 21 0 12 2 12 15 -1
8 -8 15 -17 15 -20z m-49 -9 c-10 -9 -11 -8 -5 6 3 10 9 15 12 12 3 -3 0 -11
-7 -18z m1213 8 c-4 -8 -1 -15 5 -15 6 0 11 7 11 15 0 8 5 15 10 15 6 0 10
-25 10 -55 0 -47 22 -230 35 -291 4 -20 0 -21 -103 -27 -59 -4 -125 -10 -146
-13 l-39 -7 7 73 c7 64 13 81 55 144 34 51 52 70 67 69 10 -1 13 0 7 3 -19 8
-16 27 3 20 9 -3 12 -2 8 5 -3 6 9 26 27 45 35 36 52 44 43 19z m-1193 -28
c-10 -9 -11 -8 -5 6 3 10 9 15 12 12 3 -3 0 -11 -7 -18z m53 5 c2 -4 -4 -8
-14 -8 -10 0 -16 4 -14 8 3 4 9 8 14 8 5 0 11 -4 14 -8z m61 -93 c6 -9 16 -26
23 -37 9 -16 9 -23 0 -28 -6 -4 -8 -3 -5 3 4 6 -2 21 -13 33 -11 13 -20 29
-20 35 0 14 -27 28 -39 21 -4 -3 -7 6 -7 20 l0 24 26 -27 c14 -15 30 -35 35
-44z m3395 61 c0 -5 -4 -10 -10 -10 -5 0 -10 5 -10 10 0 6 5 10 10 10 6 0 10
-4 10 -10z m-25 -70 c-3 -5 -11 -10 -16 -10 -6 0 -7 5 -4 10 3 6 11 10 16 10
6 0 7 -4 4 -10z m-3395 -15 c0 -8 -2 -15 -4 -15 -2 0 -6 7 -10 15 -3 8 -1 15
4 15 6 0 10 -7 10 -15z m78 -10 c-3 -3 -9 2 -12 12 -6 14 -5 15 5 6 7 -7 10
-15 7 -18z m3294 -7 c-14 -14 -44 -20 -36 -7 3 5 9 7 14 4 5 -3 11 -1 15 5 3
5 9 10 13 10 3 0 1 -5 -6 -12z m-3382 -12 c0 -3 -4 -8 -10 -11 -5 -3 -10 -1
-10 4 0 6 5 11 10 11 6 0 10 -2 10 -4z m2895 -34 c-4 -4 -180 -41 -199 -42
-12 0 38 38 55 42 7 2 22 10 32 19 17 15 22 15 67 1 28 -9 48 -18 45 -20z
m-2815 -6 c0 -2 -7 -7 -16 -10 -8 -3 -12 -2 -9 4 6 10 25 14 25 6z m-41 -98
c-16 -31 -16 -31 -23 -13 -3 9 -2 13 4 10 6 -3 10 1 10 9 0 9 5 16 10 16 7 0
7 -8 -1 -22z m-39 -25 c0 -5 -5 -15 -10 -23 -8 -12 -10 -11 -10 8 0 12 5 22
10 22 6 0 10 -3 10 -7z m2403 -69 l45 -6 7 -67 c6 -63 5 -70 -25 -120 -17 -30
-29 -55 -26 -58 2 -2 18 2 34 11 29 15 30 14 36 -7 3 -12 6 -37 6 -54 l0 -33
-185 0 -185 0 0 23 c0 29 26 67 48 68 9 0 12 3 6 5 -8 4 -6 20 7 54 10 28 23
71 29 97 22 102 13 93 89 93 37 0 89 -3 114 -6z m-1483 -269 l54 -55 -41 0
c-40 0 -43 2 -63 46 -36 83 -25 85 50 9z m1626 -79 c3 -27 0 -46 -6 -46 -5 0
-10 23 -10 52 0 62 10 58 16 -6z m-577 -73 c1 -13 -3 -23 -9 -23 -5 0 -10 10
-10 23 0 12 -2 40 -5 62 l-5 40 14 -40 c8 -22 15 -50 15 -62z m-945 72 c18
-14 16 -15 -30 -15 -57 0 -94 9 -94 21 0 15 103 10 124 -6z m1431 -9 c-34 -15
-355 -31 -355 -18 0 27 30 32 205 31 156 -1 176 -2 150 -13z m1075 -62 c0 -8
-65 25 -68 35 -2 6 12 2 32 -10 20 -11 36 -23 36 -25z m101 -6 c0 -10 2 -10 6
0 2 6 9 12 14 12 6 0 7 -4 4 -10 -3 -5 -1 -10 4 -10 6 0 11 4 11 8 0 5 7 9 16
9 14 0 14 -2 -2 -14 -10 -7 -25 -13 -33 -13 -9 0 -27 -3 -40 -7 -19 -5 -23 -3
-19 9 5 11 -1 14 -23 13 -15 -1 -26 2 -23 7 8 13 84 10 85 -4z m-2461 -87 c0
-21 -23 -45 -33 -34 -12 11 -8 41 6 46 22 9 27 7 27 -12z m1090 0 c0 -18 -18
-21 -30 -6 -10 13 -9 15 9 15 11 0 21 -4 21 -9z m144 -16 c-4 -8 -10 -15 -14
-15 -4 0 -10 7 -14 15 -4 10 1 15 14 15 13 0 18 -5 14 -15z m-1334 -105 c0 -5
-4 -10 -10 -10 -5 0 -10 5 -10 10 0 6 5 10 10 10 6 0 10 -4 10 -10z m1405 -10
c3 -5 -1 -10 -9 -10 -9 0 -16 5 -16 10 0 6 4 10 9 10 6 0 13 -4 16 -10z m1085
-20 c-14 -4 -34 -8 -45 -8 -16 0 -15 2 5 8 14 4 34 8 45 8 16 0 15 -2 -5 -8z
m68 -6 c-9 -8 -111 -34 -133 -33 -11 1 12 9 50 19 80 20 90 22 83 14z m29 -20
c-3 -3 -12 -4 -19 -1 -8 3 -5 6 6 6 11 1 17 -2 13 -5z m-40 -10 c-3 -3 -12 -4
-19 -1 -8 3 -5 6 6 6 11 1 17 -2 13 -5z m-1187 -104 c-19 -13 -30 -13 -30 0 0
6 10 10 23 10 18 0 19 -2 7 -10z m-2625 -158 c-3 -3 -11 0 -18 7 -9 10 -8 11
6 5 10 -3 15 -9 12 -12z m90 -32 l20 -9 -20 -1 c-14 -1 -9 -7 19 -20 l39 -18
-32 -7 c-18 -4 -35 -4 -38 -1 -4 3 2 6 13 6 15 0 13 4 -11 20 -17 11 -23 20
-15 20 13 0 13 1 0 10 -18 12 -2 12 25 0z m3588 3 c-7 -2 -21 -2 -30 0 -10 3
-4 5 12 5 17 0 24 -2 18 -5z m92 -8 c-39 -18 -67 -19 -35 -1 14 8 34 14 45 14
15 0 13 -3 -10 -13z m140 6 c-12 -11 -125 -41 -151 -40 -11 0 15 11 56 24 83
26 109 30 95 16z m-3855 -31 c8 -5 11 -10 5 -10 -5 0 -17 5 -25 10 -8 5 -10
10 -5 10 6 0 17 -5 25 -10z m-25 -18 c-3 -3 -11 0 -18 7 -9 10 -8 11 6 5 10
-3 15 -9 12 -12z m135 -16 c0 -3 -4 -8 -10 -11 -5 -3 -10 -1 -10 4 0 6 5 11
10 11 6 0 10 -2 10 -4z m-55 -16 c-16 -4 -41 -8 -55 -8 l-25 0 25 8 c14 4 39
8 55 8 l30 0 -30 -8z m2862 -22 c-10 -24 -21 -34 -42 -38 -38 -7 -45 -29 -8
-24 l28 4 -30 -15 c-51 -25 -56 -21 -38 38 20 69 18 67 64 67 l39 0 -13 -32z
m-2748 18 c-7 -7 -232 -47 -236 -42 -3 2 19 9 49 14 135 26 154 30 172 31 11
0 17 -1 15 -3z m60 -20 c-2 -2 -26 -7 -54 -10 l-50 -6 50 13 c46 12 65 13 54
3z m-134 -26 c-16 -4 -39 -8 -50 -8 -16 0 -15 2 5 8 14 4 36 8 50 8 22 0 22
-1 -5 -8z m-85 -9 c-8 -5 -33 -12 -55 -15 l-40 -6 45 14 c53 17 71 19 50 7z
m319 -5 c-7 -7 -192 -37 -196 -32 -3 3 10 7 28 11 19 3 54 10 79 14 50 10 96
13 89 7z m3456 -6 c-11 -5 -27 -9 -35 -9 -13 -1 -13 0 0 9 8 5 24 9 35 9 l20
0 -20 -9z m-3878 -16 c-3 -3 -12 -4 -19 -1 -8 3 -5 6 6 6 11 1 17 -2 13 -5z
m428 -4 c-35 -14 -130 -32 -151 -28 -10 2 17 11 61 20 90 18 120 21 90 8z
m2535 -36 c0 -6 -65 -34 -77 -33 -4 0 10 9 32 19 48 22 45 21 45 14z m-2470
-14 c0 -5 -8 -10 -17 -10 -15 0 -16 2 -3 10 19 12 20 12 20 0z m155 0 c-3 -5
-16 -10 -28 -9 -20 1 -20 2 3 9 14 4 26 8 28 9 2 1 0 -3 -3 -9z m-8 -44 c0 -8
-8 -11 -19 -8 -10 2 -15 8 -12 13 8 14 31 11 31 -5z m2572 -7 c-16 -10 -23 -4
-14 10 3 6 11 8 17 5 6 -4 5 -9 -3 -15z m-309 -4 c-14 -7 -27 -11 -30 -9 -6 7
22 24 40 23 9 0 5 -6 -10 -14z m640 -15 c0 -9 -40 -30 -56 -30 -13 0 -1 18 19
28 29 14 37 14 37 2z m-310 -10 c0 -9 -40 -30 -56 -30 -13 0 -1 17 19 26 30
15 37 16 37 4z m-2577 -7 c-7 -2 -21 -2 -30 0 -10 3 -4 5 12 5 17 0 24 -2 18
-5z m302 -2 c-14 -12 -82 -24 -70 -12 10 9 38 18 65 20 8 1 10 -2 5 -8z m-255
-20 c0 -10 -69 -25 -77 -17 -6 6 7 11 42 19 33 8 35 7 35 -2z m119 -15 c-11
-9 -69 -15 -64 -6 3 6 20 10 37 10 17 0 29 -2 27 -4z m2061 -15 c0 -8 -21 -14
-92 -28 -38 -7 -16 14 25 24 57 14 67 14 67 4z m-100 -81 c-8 -5 -23 -10 -32
-10 -10 0 -18 -4 -18 -8 0 -4 -21 -13 -46 -20 -54 -15 -157 -62 -162 -74 -2
-4 -9 -8 -16 -8 -8 0 -24 -9 -38 -19 -13 -11 -38 -23 -54 -27 -16 -3 -33 -11
-39 -18 -23 -26 -155 -74 -155 -56 0 4 20 13 45 19 27 7 45 17 45 25 0 8 14
17 30 21 17 4 30 10 30 14 0 4 21 18 48 31 26 13 54 29 62 35 8 7 60 28 115
48 139 50 157 55 180 56 16 1 17 -1 5 -9z m-1610 -79 c0 -11 -25 -21 -51 -21
-21 0 -26 16 -6 23 21 9 57 7 57 -2z m-405 -33 c-37 -20 -127 -48 -150 -48
-32 1 136 69 170 69 14 0 7 -7 -20 -21z m330 2 c3 -5 0 -10 -7 -10 -7 0 -46
-14 -87 -30 -69 -28 -97 -32 -75 -10 10 10 133 59 151 60 6 0 15 -4 18 -10z
m985 -180 c0 -5 -9 -10 -20 -10 -11 0 -20 5 -20 10 0 6 9 10 20 10 11 0 20 -4
20 -10z m-220 -19 c0 -5 -35 -28 -77 -49 -43 -22 -91 -47 -107 -56 -29 -15
-46 -13 -46 5 0 5 7 9 15 9 9 0 32 11 53 24 20 14 49 28 65 31 15 4 27 11 27
15 0 5 12 13 28 18 35 14 42 14 42 3z m160 -9 c0 -8 -221 -132 -234 -132 -3 0
-6 6 -6 14 0 16 116 80 129 71 6 -3 13 0 18 8 8 12 70 46 86 47 4 0 7 -4 7 -8z"/>
<path d="M940 3149 c0 -5 5 -7 10 -4 6 3 10 8 10 11 0 2 -4 4 -10 4 -5 0 -10
-5 -10 -11z"/>
<path d="M372 2920 c0 -14 2 -19 5 -12 2 6 2 18 0 25 -3 6 -5 1 -5 -13z"/>
<path d="M580 2920 c-18 -12 -2 -12 25 0 13 6 15 9 5 9 -8 0 -22 -4 -30 -9z"/>
<path d="M3658 2553 c-11 -12 -14 -23 -8 -33 5 -8 7 -17 4 -21 -2 -4 1 -11 8
-15 7 -4 10 -4 6 1 -4 4 -2 15 5 23 9 13 9 14 0 8 -16 -9 -17 6 -2 21 6 6 10
16 7 23 -2 7 -9 5 -20 -7z"/>
<path d="M1341 2398 c-10 -16 -10 -23 0 -32 9 -8 10 -8 5 2 -4 7 -2 20 5 28 6
8 10 16 8 19 -3 2 -11 -5 -18 -17z"/>
<path d="M1570 3974 c0 -19 4 -25 15 -21 8 4 17 2 20 -3 3 -5 12 -7 20 -3 11
4 15 -3 16 -23 1 -18 3 -22 6 -11 3 10 16 22 29 27 17 7 24 17 24 37 0 22 -2
25 -10 13 -6 -10 -10 -11 -10 -2 0 8 -18 12 -55 12 -53 0 -55 -1 -55 -26z"/>
<path d="M1776 3991 c-10 -16 5 -41 25 -41 11 0 22 -7 25 -15 4 -9 19 -15 41
-15 28 0 34 3 29 16 -3 9 -6 27 -6 40 0 22 -4 24 -54 24 -30 0 -57 -4 -60 -9z"/>
<path d="M1974 3971 c-5 -22 -11 -28 -23 -24 -12 4 -13 3 -2 -5 7 -5 21 -8 30
-6 9 1 37 6 64 9 42 6 47 9 47 31 0 23 -3 24 -55 24 -53 0 -56 -1 -61 -29z"/>
<path d="M2577 3871 c-3 -14 0 -17 13 -14 9 2 17 11 17 19 0 21 -24 17 -30 -5z"/>
<path d="M1810 3864 c-8 -9 -24 -20 -37 -25 -27 -10 -31 -39 -5 -39 10 0 27
-7 38 -15 19 -12 24 -12 40 0 11 8 29 15 42 15 15 0 22 6 22 20 0 11 -4 20
-10 20 -5 0 -10 7 -10 15 0 8 -9 15 -19 15 -11 0 -26 2 -34 5 -7 3 -20 -2 -27
-11z"/>
<path d="M1650 3849 c-12 -8 -9 -9 9 -4 20 6 23 4 18 -9 -4 -10 -3 -15 3 -11
14 9 12 35 -2 35 -7 0 -20 -5 -28 -11z"/>
<path d="M2630 3848 c0 -9 5 -20 10 -23 6 -4 8 -10 5 -14 -2 -5 2 -17 10 -27
8 -10 15 -29 15 -41 0 -13 5 -23 10 -23 12 0 13 43 1 56 -5 5 -18 27 -30 49
-12 22 -21 32 -21 23z"/>
<path d="M1555 3840 c8 -13 45 -13 65 0 11 7 3 10 -28 10 -26 0 -41 -4 -37
-10z"/>
<path d="M1951 3828 c-1 -31 15 -46 32 -29 9 9 8 11 -5 6 -13 -5 -18 0 -21 22
l-4 28 -2 -27z"/>
<path d="M1990 3829 c0 -5 5 -7 10 -4 6 3 10 8 10 11 0 2 -4 4 -10 4 -5 0 -10
-5 -10 -11z"/>
<path d="M2026 3829 c3 -5 18 -9 34 -9 16 0 31 4 34 9 3 4 -12 8 -34 8 -22 0
-37 -4 -34 -8z"/>
<path d="M2775 3810 c-20 -38 -20 -90 0 -90 8 0 15 5 15 11 0 5 5 7 10 4 6 -4
10 15 10 49 0 62 -12 71 -35 26z"/>
<path d="M787 3776 c-4 -10 -5 -21 -2 -24 9 -9 17 6 13 25 -3 17 -4 17 -11 -1z"/>
<path d="M2710 3750 c0 -11 4 -20 9 -20 5 0 7 9 4 20 -3 11 -7 20 -9 20 -2 0
-4 -9 -4 -20z"/>
<path d="M740 3711 c0 -5 5 -13 10 -16 6 -3 10 -2 10 4 0 5 -4 13 -10 16 -5 3
-10 2 -10 -4z"/>
<path d="M770 3680 c0 -5 5 -10 11 -10 5 0 7 5 4 10 -3 6 -8 10 -11 10 -2 0
-4 -4 -4 -10z"/>
<path d="M76 3392 c-2 -4 4 -8 14 -8 10 0 16 4 14 8 -3 4 -9 8 -14 8 -5 0 -11
-4 -14 -8z"/>
<path d="M748 3323 c7 -3 16 -2 19 1 4 3 -2 6 -13 5 -11 0 -14 -3 -6 -6z"/>
<path d="M80 2801 c0 -6 5 -13 10 -16 6 -3 10 1 10 9 0 9 -4 16 -10 16 -5 0
-10 -4 -10 -9z"/>
<path d="M81 2743 c0 -25 1 -26 9 -8 12 27 12 35 0 35 -5 0 -10 -12 -9 -27z"/>
<path d="M106 2724 c-4 -14 -5 -28 -3 -31 3 -2 8 8 11 23 4 14 5 28 3 31 -3 2
-8 -8 -11 -23z"/>
<path d="M120 2691 c0 -5 5 -13 10 -16 6 -3 10 -2 10 4 0 5 -4 13 -10 16 -5 3
-10 2 -10 -4z"/>
<path d="M88 2666 c-9 -8 -33 -16 -54 -19 -38 -4 -38 -4 8 -5 26 -1 50 3 54 9
4 8 9 7 15 -2 4 -7 10 -11 13 -9 2 3 -2 13 -9 23 -11 16 -15 16 -27 3z"/>
<path d="M1045 1270 c-3 -5 3 -10 15 -10 12 0 18 5 15 10 -3 6 -10 10 -15 10
-5 0 -12 -4 -15 -10z"/>
<path d="M1078 1243 c6 -2 18 -2 25 0 6 3 1 5 -13 5 -14 0 -19 -2 -12 -5z"/>
<path d="M2798 1233 c7 -3 16 -2 19 1 4 3 -2 6 -13 5 -11 0 -14 -3 -6 -6z"/>
<path d="M2495 1194 c41 -10 70 -12 95 -6 34 9 34 9 -16 9 -28 0 -71 3 -95 6
-36 5 -33 3 16 -9z"/>
<path d="M1922 1105 c0 -16 2 -22 5 -12 2 9 2 23 0 30 -3 6 -5 -1 -5 -18z"/>
<path d="M3011 1094 c0 -11 3 -14 6 -6 3 7 2 16 -1 19 -3 4 -6 -2 -5 -13z"/>
<path d="M940 678 c-329 -78 -422 -107 -480 -151 -20 -16 -21 -18 -5 -14 11 3
37 9 58 13 20 3 40 10 43 15 3 5 14 9 26 9 11 0 32 6 46 14 38 19 143 49 307
86 169 38 165 37 165 50 0 14 -18 12 -160 -22z"/>
<path d="M3955 574 c-16 -9 -61 -28 -100 -44 -61 -24 -70 -31 -72 -55 -2 -21
1 -25 9 -17 7 7 20 12 31 12 10 0 47 16 81 35 35 19 70 35 79 35 11 0 17 8 17
25 0 29 -5 30 -45 9z"/>
<path d="M2376 545 c-15 -8 -33 -15 -39 -15 -15 0 -168 -79 -189 -98 -10 -8
-18 -19 -18 -25 0 -16 51 2 195 72 77 38 147 71 155 74 8 3 -5 6 -30 6 -25 1
-58 -6 -74 -14z"/>
<path d="M2193 533 c-39 -19 -51 -43 -23 -43 11 0 28 4 38 9 9 5 37 19 62 30
l45 20 -45 0 c-25 0 -59 -7 -77 -16z"/>
<path d="M3938 498 c-21 -11 -59 -39 -85 -63 -37 -33 -45 -46 -36 -55 16 -17
58 -1 119 45 55 42 64 52 64 78 0 21 -14 20 -62 -5z"/>
<path d="M7 483 c7 -2 19 -2 26 0 6 3 1 5 -13 5 -14 0 -19 -2 -13 -5z"/>
<path d="M48 434 c-35 -11 -48 -20 -48 -34 0 -20 -1 -20 102 16 48 16 56 35
15 33 -12 0 -43 -7 -69 -15z"/>
<path d="M165 414 c-60 -18 -116 -34 -123 -34 -18 0 -42 -25 -42 -44 0 -11 31
-4 142 35 79 28 151 53 161 56 25 8 21 23 -5 22 -13 0 -72 -16 -133 -35z"/>
<path d="M3934 376 c-55 -57 -63 -61 -104 -61 -25 0 -45 -6 -48 -13 -2 -6 -9
-12 -16 -12 -11 0 -119 -84 -177 -138 -13 -12 -62 -51 -107 -87 l-84 -65 60 0
c53 0 62 3 76 25 13 19 23 25 39 21 12 -3 16 -3 10 0 -18 8 -16 24 2 24 8 0
35 20 59 45 25 25 48 45 52 45 16 0 144 114 144 127 0 10 6 13 16 9 9 -3 18
-6 20 -6 13 0 1 -38 -16 -50 -11 -8 -20 -20 -20 -27 0 -7 -6 -13 -14 -13 -8 0
-28 -13 -46 -30 -18 -16 -35 -30 -39 -30 -4 0 -13 -9 -21 -20 -8 -11 -20 -20
-28 -20 -7 0 -11 -4 -8 -9 4 -5 -7 -15 -24 -23 -16 -7 -30 -18 -30 -24 0 -14
-29 -28 -52 -25 -10 1 -18 -3 -18 -8 0 -14 99 -15 133 -2 14 6 41 26 61 45 19
20 44 36 55 36 13 0 18 5 15 13 -7 18 89 98 105 87 14 -8 6 -50 -9 -50 -5 0
-27 -18 -49 -40 -22 -22 -45 -40 -51 -40 -6 0 -13 -7 -16 -15 -4 -9 -18 -22
-33 -30 -25 -14 -24 -14 32 -15 44 0 65 5 84 20 14 11 30 17 36 13 5 -3 7 -2
4 4 -6 10 44 53 63 53 6 0 10 60 9 175 0 96 -1 175 -2 174 -1 -1 -29 -29 -63
-63z"/>
<path d="M3635 313 c-11 -3 -25 -10 -30 -17 -6 -7 -28 -22 -50 -34 -22 -11
-56 -36 -74 -56 -19 -20 -40 -36 -47 -36 -6 0 -14 -7 -18 -15 -3 -8 -11 -15
-18 -15 -7 0 -37 -22 -66 -49 -30 -27 -70 -58 -90 -68 l-37 -18 62 -3 c49 -2
66 1 82 15 11 10 26 23 33 28 26 19 113 89 118 95 13 14 70 50 80 50 5 0 10 6
10 13 1 14 68 67 86 67 8 0 11 6 8 15 -4 8 -1 15 5 15 6 0 11 5 11 10 0 10
-29 11 -65 3z"/>
<path d="M3967 25 l-28 -25 30 0 c26 0 31 4 31 25 0 30 2 30 -33 0z"/>
</g>
</svg>
